<?xml version="1.0" encoding="utf-8"?>
<!-- Generator: Adobe Illustrator 28.3.0, SVG Export Plug-In . SVG Version: 6.00 Build 0)  -->
<svg version="1.1" id="Layer_1" xmlns="http://www.w3.org/2000/svg" xmlns:xlink="http://www.w3.org/1999/xlink" x="0px" y="0px"
	 viewBox="0 0 139 29" style="enable-background:new 0 0 139 29;" xml:space="preserve">
<style type="text/css">
	.st0{fill:#FFFFFF;}
</style>
<g>
	<path class="st0" d="M18.76341,21.36896c-0.04469-0.05271-0.06761-0.10314-0.06016-0.16273L23.78563,0h-2.70335
		c-1.55394,0-2.95661,0.46297-4.16905,1.37631c-1.21932,0.91792-2.0278,2.15214-2.40311,3.66941l-3.88084,16.10092
		c-0.46756,2.06619-0.02235,3.91006,1.31902,5.47775C13.26961,28.20011,15.03097,29,17.18368,29h17.00166l0.43146-1.74646
		c0.15815-0.64747,0.33061-1.36485,0.51626-2.14985c0.18565-0.7827,0.35353-1.48174,0.50365-2.09713
		c0.08194-0.3266,0.14955-0.59132,0.20398-0.79531l0.19653-0.73686l-17.07958-0.02177
		C18.85566,21.45262,18.80925,21.42168,18.76341,21.36896z"/>
	<path class="st0" d="M45.78603,21.36896c-0.04584-0.05271-0.06876-0.10314-0.06188-0.16043l0.71623-2.93484h11.31076
		l1.73386-7.54738H48.25102L48.95006,7.827c0.02865-0.08595,0.07449-0.14668,0.16617-0.21086
		c0.0699-0.05271,0.11345-0.06761,0.12262-0.06876h16.96498L68.01104,0H48.14559c-3.11934,0-5.31159,1.6777-6.51257,4.98613
		l-3.89975,16.16395c-0.45151,2.06275-0.0149,3.90433,1.29495,5.46858C40.32203,28.19897,42.05703,29,44.1851,29h16.81831
		l0.10887-0.44693c0.56496-2.29882,1.07378-4.41887,1.52873-6.359l0.16731-0.71967l-16.84925-0.02177
		C45.86052,21.45262,45.83187,21.42626,45.78603,21.36896z"/>
	<path class="st0" d="M94.79702,14.96985c0.50881-2.06963,0.93511-3.8138,1.28005-5.23137l0.45724-1.89315
		c0.43777-2.06848-0.05271-3.9135-1.45538-5.48119C93.69001,0.79531,91.8702,0,89.66879,0H75.31203
		c-3.27634,0-5.59694,1.67312-6.89876,4.97123l-0.02636,0.08251c-0.09512,0.4114-0.34264,1.4382-0.74145,3.07808l-1.32933,5.46629
		c-0.48933,2.00087-1.09784,4.51514-1.83126,7.56457c-0.40682,2.0639,0.08939,3.90548,1.47716,5.47317
		C67.35096,28.20469,69.19941,29,71.45469,29h14.25362c3.39552,0,5.71268-1.67885,6.90105-5.03999
		c0.11002-0.42745,0.37588-1.51727,0.79646-3.26831C93.82523,18.94523,94.28821,17.03833,94.79702,14.96985z M87.42726,10.3722
		c-0.33004,1.37288-0.70019,2.89129-1.11274,4.5541c-0.41255,1.6651-0.92251,3.76338-1.51383,6.2467
		c-0.09282,0.27962-0.20284,0.27962-0.30941,0.27962H73.26991c-0.10542,0-0.18221-0.03438-0.25096-0.10085
		c-0.05616-0.06074-0.06991-0.10658-0.07105-0.12377c0.0974-0.34608,0.31171-1.21358,0.64518-2.60021
		c0.33004-1.37402,0.6979-2.89244,1.10242-4.55639l1.06232-4.34095c0.30712-1.24567,0.46642-1.90461,0.46642-1.91951
		c0.07449-0.24524,0.16502-0.26357,0.30482-0.26357h11.22137c0.08595,0,0.19825,0.01146,0.23951,0.06417
		c0.04125,0.05271,0.06532,0.11116,0.05615,0.18221L87.42726,10.3722z"/>
	<path class="st0" d="M122.0815,0l-3.14341,13.75053L107.3099,0h-2.04671c-2.97839,0-5.12708,1.67427-6.38536,4.97811L93.04826,29
		h7.80981l4.51857-18.87304l11.12855,13.23943L115.1644,29h2.24707c3.21252,0,6.00721-2.19981,6.76177-5.32245L128.409,6.1485
		C129.16603,3.01564,126.7923,0,123.56927,0H122.0815z"/>
</g>
</svg>
